<?xml version="1.0" standalone="no"?>
<!DOCTYPE svg PUBLIC "-//W3C//DTD SVG 20010904//EN"
 "http://www.w3.org/TR/2001/REC-SVG-20010904/DTD/svg10.dtd">
<svg version="1.0" xmlns="http://www.w3.org/2000/svg"
 width="884.000000pt" height="193.000000pt" viewBox="0 0 884.000000 193.000000"
 preserveAspectRatio="xMidYMid meet">

<g transform="translate(0.000000,193.000000) scale(0.100000,-0.100000)"
fill="#000000" stroke="none">
<path d="M497 1354 c-4 -4 -7 -115 -7 -246 0 -231 1 -238 20 -238 19 0 20 7
20 120 l0 120 70 0 c136 0 170 -32 170 -157 0 -76 2 -83 20 -83 18 0 20 7 20
72 0 93 -25 149 -80 176 -38 19 -38 19 -18 36 19 17 98 173 98 195 0 6 -6 11
-13 11 -8 0 -31 -38 -52 -85 -49 -111 -77 -135 -155 -135 l-59 0 -3 107 c-3
98 -11 127 -31 107z"/>
<path d="M5830 1144 c0 -156 3 -190 17 -214 26 -44 68 -62 138 -58 79 4 73 22
-11 28 -56 4 -69 9 -90 33 -23 28 -24 32 -24 213 0 157 -2 184 -15 184 -13 0
-15 -27 -15 -186z"/>
<path d="M6450 1100 c0 -198 2 -230 15 -230 12 0 15 16 15 81 l0 81 61 -4 c79
-6 99 -27 99 -104 0 -41 4 -54 15 -54 11 0 15 12 14 48 -1 69 -11 94 -45 117
l-31 21 38 54 c21 30 38 61 39 68 1 26 -21 10 -61 -45 -51 -70 -55 -73 -96
-73 l-33 0 0 135 c0 113 -2 135 -15 135 -13 0 -15 -32 -15 -230z"/>
<path d="M1075 1290 c-9 -15 14 -40 31 -33 22 8 18 43 -5 43 -11 0 -23 -5 -26
-10z"/>
<path d="M1185 1290 c-9 -15 14 -40 31 -33 22 8 18 43 -5 43 -11 0 -23 -5 -26
-10z"/>
<path d="M7430 1099 l0 -171 29 -29 c23 -23 39 -29 70 -29 30 0 41 4 41 15 0
11 -11 15 -39 15 -64 0 -71 14 -71 146 l0 114 56 0 c40 0 54 3 51 13 -2 7 -23
12 -53 13 l-49 1 -3 41 c-2 29 -8 42 -18 42 -12 0 -14 -29 -14 -171z"/>
<path d="M1103 1199 c-18 -5 -48 -25 -66 -43 -114 -114 -16 -318 141 -293 106
18 171 139 128 240 -19 45 -67 87 -112 98 -46 10 -49 10 -91 -2z m101 -33
c102 -42 112 -190 17 -253 -128 -86 -272 95 -169 213 48 55 90 66 152 40z"/>
<path d="M2050 1199 c-71 -21 -120 -89 -120 -167 0 -57 27 -104 79 -139 44
-29 130 -32 181 -4 38 20 80 82 80 119 0 33 -27 27 -34 -9 -8 -43 -64 -96
-109 -104 -51 -10 -82 0 -124 39 -31 28 -37 40 -40 87 -4 45 -1 60 19 89 46
68 141 88 200 41 21 -18 21 -18 -78 -86 -123 -85 -121 -83 -101 -90 10 -4 57
21 130 71 127 85 130 92 58 132 -46 26 -97 33 -141 21z"/>
<path d="M2540 1204 c-77 -27 -90 -57 -90 -213 0 -101 2 -121 15 -121 13 0 15
21 15 126 0 125 0 126 29 155 18 17 40 29 56 29 16 0 38 -12 56 -29 29 -29 29
-30 29 -155 0 -105 2 -126 15 -126 13 0 15 21 15 128 1 132 5 148 47 170 31
17 57 15 84 -7 23 -18 24 -27 29 -152 4 -93 9 -134 18 -137 9 -3 12 28 12 132
l0 136 -29 32 c-25 28 -36 33 -74 33 -32 0 -55 -7 -76 -23 l-31 -23 -22 21
c-12 11 -27 20 -32 20 -6 0 -20 2 -31 5 -11 2 -27 2 -35 -1z"/>
<path d="M1526 1179 c-20 -16 -26 -29 -26 -58 0 -51 20 -66 120 -95 94 -28
103 -34 103 -72 0 -43 -26 -54 -130 -54 -76 0 -93 -3 -93 -15 0 -11 12 -15 46
-15 45 0 45 0 30 -22 -23 -32 -20 -38 12 -32 37 7 61 -18 41 -42 -9 -12 -24
-15 -51 -11 -39 5 -60 -6 -32 -17 31 -12 82 -6 104 12 33 26 21 70 -20 79 -43
8 -20 33 31 33 54 0 93 35 93 85 0 50 -32 77 -120 99 -77 20 -104 38 -104 72
0 34 28 44 119 44 65 0 81 3 81 15 0 12 -17 15 -89 15 -74 0 -92 -3 -115 -21z"/>
<path d="M6149 1167 c-104 -70 -108 -206 -6 -281 20 -15 43 -20 82 -20 61 0
95 19 133 74 28 42 30 120 3 170 -39 74 -145 102 -212 57z m162 -46 c35 -34
39 -44 39 -87 0 -112 -100 -178 -187 -124 -44 27 -65 62 -65 113 -2 81 51 136
131 137 37 0 49 -5 82 -39z"/>
<path d="M6797 1168 c-43 -25 -77 -87 -77 -139 1 -51 34 -116 72 -139 59 -36
168 -21 177 25 3 18 2 18 -21 3 -65 -43 -144 -24 -180 43 -48 90 10 199 107
199 88 0 125 -60 125 -200 0 -73 3 -90 15 -90 12 0 15 17 15 93 0 104 -21 164
-72 200 -41 30 -115 33 -161 5z"/>
<path d="M7162 1170 c-49 -30 -62 -72 -62 -195 0 -87 3 -105 15 -105 12 0 15
18 15 105 0 144 22 185 100 185 75 0 100 -49 100 -198 0 -71 3 -93 13 -90 17
6 21 183 5 233 -25 76 -116 107 -186 65z"/>
<path d="M7680 1172 c-52 -28 -80 -75 -80 -134 0 -102 56 -168 141 -168 55 0
109 22 109 45 0 17 -16 20 -25 5 -3 -5 -23 -14 -45 -20 -80 -22 -150 39 -150
130 0 76 49 129 120 129 44 0 76 -17 101 -55 15 -24 19 -47 19 -131 0 -85 3
-103 15 -103 12 0 15 18 15 103 0 112 -14 154 -63 191 -37 28 -114 32 -157 8z"/>
<path d="M8023 1183 c-27 -5 -63 -48 -63 -74 0 -37 42 -69 118 -89 40 -10 79
-24 87 -30 18 -15 20 -66 3 -77 -7 -4 -55 -10 -106 -13 -124 -7 -116 -25 11
-25 92 0 100 2 118 24 46 56 12 119 -75 141 -95 24 -111 34 -114 68 -4 41 21
52 119 52 52 0 70 3 67 13 -5 12 -119 20 -165 10z"/>
<path d="M8296 1183 c-3 -3 -6 -75 -6 -160 0 -129 2 -153 15 -153 13 0 15 24
15 154 0 141 -5 177 -24 159z"/>
</g>
</svg>
